<?xml version="1.0" encoding="UTF-8" standalone="no"?>
<svg
   xmlns:dc="http://purl.org/dc/elements/1.1/"
   xmlns:cc="http://creativecommons.org/ns#"
   xmlns:rdf="http://www.w3.org/1999/02/22-rdf-syntax-ns#"
   xmlns:svg="http://www.w3.org/2000/svg"
   xmlns="http://www.w3.org/2000/svg"
   id="svg6"
   viewBox="0 0 60 60"
   version="1.1">
  <metadata
     id="metadata12">
    <rdf:RDF>
      <cc:Work
         rdf:about="">
        <dc:format>image/svg+xml</dc:format>
        <dc:type
           rdf:resource="http://purl.org/dc/dcmitype/StillImage" />
        <dc:title></dc:title>
      </cc:Work>
    </rdf:RDF>
  </metadata>
  <defs
     id="defs10" />
  <path
     id="path2"
     style="isolation:auto;mix-blend-mode:normal"
     solid-color="#000000"
     shape-rendering="auto"
     image-rendering="auto"
     fill="#ccc"
     color-rendering="auto"
     color="#000000"
     d="m26 10v2h8v-2zm-16 16v8h2v-8zm38 0v8h2v-8zm-38 18v4 2h6v-2h-4v-4zm16 4v2h8v-2z" />
  <path
     id="path4"
     style="isolation:auto;mix-blend-mode:normal"
     solid-color="#000000"
     shape-rendering="auto"
     image-rendering="auto"
     fill="#fe5498"
     color-rendering="auto"
     color="#000000"
     d="m0-2.2e-6v20h20v-20zm50 0a10 10 0 0 0-10 10 10 10 0 0 0 10 10 10 10 0 0 0 10-10 10 10 0 0 0-10-10zm-46 4h12v12h-12zm46 0a6 6 0 0 1 6 6 6 6 0 0 1-6 6 6 6 0 0 1-6-6 6 6 0 0 1 6-6zm-10 36v20h20v-20zm4 4h12v12h-12z" />
</svg>
